<svg width="376" height="376" viewBox="0 0 376 376" fill="none" xmlns="http://www.w3.org/2000/svg">
<circle cx="188" cy="188" r="188" fill="#6085E6"/>
<circle cx="188.5" cy="188.5" r="101.5" fill="#DC315A"/>
<path d="M114.536 179.091H119.013L123.325 187.234H123.51L127.822 179.091H132.3L125.403 191.315V198H121.433V191.315L114.536 179.091ZM137.846 198.277C136.412 198.277 135.172 197.972 134.126 197.363C133.085 196.747 132.282 195.892 131.716 194.796C131.149 193.694 130.866 192.417 130.866 190.964C130.866 189.5 131.149 188.219 131.716 187.124C132.282 186.022 133.085 185.166 134.126 184.557C135.172 183.941 136.412 183.634 137.846 183.634C139.281 183.634 140.518 183.941 141.558 184.557C142.604 185.166 143.411 186.022 143.977 187.124C144.543 188.219 144.827 189.5 144.827 190.964C144.827 192.417 144.543 193.694 143.977 194.796C143.411 195.892 142.604 196.747 141.558 197.363C140.518 197.972 139.281 198.277 137.846 198.277ZM137.865 195.23C138.517 195.23 139.062 195.045 139.499 194.676C139.936 194.301 140.265 193.79 140.487 193.143C140.715 192.497 140.829 191.762 140.829 190.937C140.829 190.112 140.715 189.376 140.487 188.73C140.265 188.084 139.936 187.573 139.499 187.197C139.062 186.822 138.517 186.634 137.865 186.634C137.206 186.634 136.652 186.822 136.203 187.197C135.76 187.573 135.424 188.084 135.197 188.73C134.975 189.376 134.864 190.112 134.864 190.937C134.864 191.762 134.975 192.497 135.197 193.143C135.424 193.79 135.76 194.301 136.203 194.676C136.652 195.045 137.206 195.23 137.865 195.23ZM156.479 191.962V183.818H160.412V198H156.635V195.424H156.488C156.168 196.255 155.635 196.923 154.89 197.428C154.152 197.932 153.25 198.185 152.185 198.185C151.237 198.185 150.403 197.969 149.683 197.538C148.963 197.107 148.4 196.495 147.993 195.701C147.593 194.907 147.39 193.956 147.384 192.848V183.818H151.317V192.146C151.323 192.983 151.548 193.645 151.991 194.131C152.434 194.618 153.028 194.861 153.773 194.861C154.247 194.861 154.69 194.753 155.103 194.538C155.515 194.316 155.848 193.99 156.1 193.559C156.358 193.128 156.485 192.596 156.479 191.962ZM171.101 183.818V186.773H162.561V183.818H171.101ZM164.5 180.42H168.433V193.642C168.433 194.005 168.488 194.288 168.599 194.491C168.71 194.688 168.864 194.827 169.061 194.907C169.264 194.987 169.498 195.027 169.762 195.027C169.947 195.027 170.132 195.012 170.316 194.981C170.501 194.944 170.643 194.916 170.741 194.898L171.36 197.825C171.163 197.886 170.886 197.957 170.529 198.037C170.172 198.123 169.738 198.175 169.227 198.194C168.279 198.231 167.448 198.105 166.734 197.815C166.026 197.526 165.475 197.077 165.081 196.467C164.687 195.858 164.493 195.089 164.5 194.159V180.42ZM182.758 191.962V183.818H186.691V198H182.915V195.424H182.767C182.447 196.255 181.915 196.923 181.17 197.428C180.431 197.932 179.529 198.185 178.464 198.185C177.517 198.185 176.683 197.969 175.962 197.538C175.242 197.107 174.679 196.495 174.273 195.701C173.873 194.907 173.67 193.956 173.663 192.848V183.818H177.597V192.146C177.603 192.983 177.827 193.645 178.271 194.131C178.714 194.618 179.308 194.861 180.053 194.861C180.527 194.861 180.97 194.753 181.382 194.538C181.795 194.316 182.127 193.99 182.379 193.559C182.638 193.128 182.764 192.596 182.758 191.962ZM189.911 198V179.091H193.844V186.2H193.964C194.137 185.819 194.386 185.431 194.712 185.037C195.045 184.637 195.475 184.304 196.005 184.04C196.54 183.769 197.205 183.634 197.999 183.634C199.033 183.634 199.987 183.904 200.861 184.446C201.735 184.982 202.434 185.791 202.957 186.874C203.48 187.951 203.742 189.303 203.742 190.928C203.742 192.509 203.487 193.845 202.976 194.935C202.471 196.018 201.782 196.84 200.907 197.4C200.04 197.954 199.067 198.231 197.99 198.231C197.227 198.231 196.577 198.105 196.042 197.852C195.512 197.6 195.078 197.283 194.74 196.901C194.401 196.513 194.143 196.123 193.964 195.729H193.789V198H189.911ZM193.761 190.909C193.761 191.752 193.878 192.488 194.112 193.116C194.346 193.744 194.684 194.233 195.128 194.584C195.571 194.929 196.109 195.101 196.743 195.101C197.384 195.101 197.925 194.925 198.368 194.575C198.812 194.218 199.147 193.725 199.375 193.097C199.609 192.463 199.726 191.734 199.726 190.909C199.726 190.09 199.612 189.37 199.384 188.749C199.156 188.127 198.821 187.641 198.378 187.29C197.934 186.939 197.39 186.763 196.743 186.763C196.103 186.763 195.562 186.933 195.118 187.271C194.681 187.61 194.346 188.09 194.112 188.712C193.878 189.333 193.761 190.066 193.761 190.909ZM212.83 198.277C211.371 198.277 210.115 197.982 209.062 197.391C208.016 196.794 207.21 195.95 206.643 194.861C206.077 193.765 205.794 192.469 205.794 190.974C205.794 189.515 206.077 188.235 206.643 187.133C207.21 186.031 208.007 185.172 209.035 184.557C210.069 183.941 211.281 183.634 212.673 183.634C213.608 183.634 214.479 183.784 215.286 184.086C216.098 184.381 216.806 184.828 217.409 185.425C218.018 186.022 218.492 186.773 218.831 187.678C219.17 188.576 219.339 189.629 219.339 190.835V191.915H207.364V189.478H215.636C215.636 188.912 215.513 188.41 215.267 187.973C215.021 187.536 214.679 187.194 214.242 186.948C213.811 186.696 213.31 186.57 212.737 186.57C212.14 186.57 211.611 186.708 211.149 186.985C210.694 187.256 210.337 187.622 210.078 188.084C209.82 188.539 209.687 189.047 209.681 189.607V191.925C209.681 192.626 209.81 193.233 210.069 193.744C210.334 194.254 210.706 194.648 211.186 194.925C211.666 195.202 212.236 195.341 212.894 195.341C213.331 195.341 213.731 195.279 214.094 195.156C214.458 195.033 214.768 194.848 215.027 194.602C215.286 194.356 215.482 194.054 215.618 193.697L219.256 193.938C219.071 194.812 218.692 195.575 218.12 196.227C217.554 196.874 216.821 197.378 215.923 197.741C215.03 198.098 213.999 198.277 212.83 198.277ZM230.741 188.675V191.795H222.118V188.675H230.741ZM239.319 198.231C238.242 198.231 237.266 197.954 236.392 197.4C235.524 196.84 234.835 196.018 234.324 194.935C233.819 193.845 233.567 192.509 233.567 190.928C233.567 189.303 233.828 187.951 234.352 186.874C234.875 185.791 235.57 184.982 236.438 184.446C237.312 183.904 238.269 183.634 239.31 183.634C240.104 183.634 240.765 183.769 241.295 184.04C241.83 184.304 242.261 184.637 242.587 185.037C242.92 185.431 243.172 185.819 243.344 186.2H243.464V179.091H247.388V198H243.511V195.729H243.344C243.16 196.123 242.898 196.513 242.56 196.901C242.227 197.283 241.793 197.6 241.258 197.852C240.728 198.105 240.082 198.231 239.319 198.231ZM240.565 195.101C241.199 195.101 241.735 194.929 242.172 194.584C242.615 194.233 242.954 193.744 243.188 193.116C243.428 192.488 243.548 191.752 243.548 190.909C243.548 190.066 243.431 189.333 243.197 188.712C242.963 188.09 242.624 187.61 242.181 187.271C241.738 186.933 241.199 186.763 240.565 186.763C239.919 186.763 239.374 186.939 238.931 187.29C238.488 187.641 238.152 188.127 237.925 188.749C237.697 189.37 237.583 190.09 237.583 190.909C237.583 191.734 237.697 192.463 237.925 193.097C238.159 193.725 238.494 194.218 238.931 194.575C239.374 194.925 239.919 195.101 240.565 195.101ZM254.556 179.091V198H250.622V179.091H254.556Z" fill="white"/>
<path d="M117.467 25.0909H121.945L126.257 33.2344H126.442L130.753 25.0909H135.231L128.334 37.3153V44H124.364V37.3153L117.467 25.0909ZM140.778 44.277C139.344 44.277 138.104 43.9723 137.057 43.3629C136.017 42.7474 135.214 41.8918 134.647 40.7962C134.081 39.6944 133.798 38.4171 133.798 36.9645C133.798 35.4995 134.081 34.2192 134.647 33.1236C135.214 32.0218 136.017 31.1662 137.057 30.5568C138.104 29.9413 139.344 29.6335 140.778 29.6335C142.212 29.6335 143.449 29.9413 144.49 30.5568C145.536 31.1662 146.342 32.0218 146.909 33.1236C147.475 34.2192 147.758 35.4995 147.758 36.9645C147.758 38.4171 147.475 39.6944 146.909 40.7962C146.342 41.8918 145.536 42.7474 144.49 43.3629C143.449 43.9723 142.212 44.277 140.778 44.277ZM140.797 41.2301C141.449 41.2301 141.994 41.0455 142.431 40.6761C142.868 40.3007 143.197 39.7898 143.419 39.1435C143.646 38.4972 143.76 37.7616 143.76 36.9368C143.76 36.112 143.646 35.3764 143.419 34.7301C143.197 34.0838 142.868 33.5729 142.431 33.1974C141.994 32.822 141.449 32.6342 140.797 32.6342C140.138 32.6342 139.584 32.822 139.135 33.1974C138.691 33.5729 138.356 34.0838 138.128 34.7301C137.907 35.3764 137.796 36.112 137.796 36.9368C137.796 37.7616 137.907 38.4972 138.128 39.1435C138.356 39.7898 138.691 40.3007 139.135 40.6761C139.584 41.0455 140.138 41.2301 140.797 41.2301ZM159.41 37.9616V29.8182H163.343V44H159.567V41.424H159.419C159.099 42.255 158.567 42.9228 157.822 43.4276C157.083 43.9323 156.182 44.1847 155.117 44.1847C154.169 44.1847 153.335 43.9692 152.615 43.5384C151.895 43.1075 151.331 42.495 150.925 41.701C150.525 40.907 150.322 39.956 150.316 38.848V29.8182H154.249V38.1463C154.255 38.9834 154.48 39.6451 154.923 40.1314C155.366 40.6177 155.96 40.8608 156.705 40.8608C157.179 40.8608 157.622 40.7531 158.034 40.5376C158.447 40.3161 158.779 39.9898 159.032 39.5589C159.29 39.1281 159.416 38.5956 159.41 37.9616ZM174.033 29.8182V32.7727H165.492V29.8182H174.033ZM167.431 26.4205H171.365V39.642C171.365 40.0052 171.42 40.2884 171.531 40.4915C171.642 40.6884 171.795 40.8269 171.992 40.907C172.195 40.987 172.429 41.027 172.694 41.027C172.879 41.027 173.063 41.0116 173.248 40.9808C173.433 40.9439 173.574 40.9162 173.673 40.8977L174.291 43.8246C174.094 43.8861 173.817 43.9569 173.46 44.0369C173.103 44.1231 172.669 44.1754 172.159 44.1939C171.211 44.2308 170.38 44.1046 169.666 43.8153C168.958 43.526 168.407 43.0767 168.013 42.4673C167.619 41.858 167.425 41.0885 167.431 40.1591V26.4205ZM185.689 37.9616V29.8182H189.623V44H185.846V41.424H185.699C185.379 42.255 184.846 42.9228 184.101 43.4276C183.363 43.9323 182.461 44.1847 181.396 44.1847C180.448 44.1847 179.614 43.9692 178.894 43.5384C178.174 43.1075 177.611 42.495 177.204 41.701C176.804 40.907 176.601 39.956 176.595 38.848V29.8182H180.528V38.1463C180.534 38.9834 180.759 39.6451 181.202 40.1314C181.645 40.6177 182.239 40.8608 182.984 40.8608C183.458 40.8608 183.901 40.7531 184.314 40.5376C184.726 40.3161 185.059 39.9898 185.311 39.5589C185.569 39.1281 185.696 38.5956 185.689 37.9616ZM192.843 44V25.0909H196.776V32.2003H196.896C197.068 31.8187 197.318 31.4309 197.644 31.0369C197.976 30.6368 198.407 30.3045 198.936 30.0398C199.472 29.7689 200.137 29.6335 200.931 29.6335C201.965 29.6335 202.919 29.9044 203.793 30.446C204.667 30.9815 205.366 31.791 205.889 32.8743C206.412 33.9515 206.674 35.3026 206.674 36.9276C206.674 38.5095 206.418 39.8452 205.907 40.9347C205.403 42.018 204.713 42.8397 203.839 43.3999C202.971 43.9538 201.999 44.2308 200.922 44.2308C200.158 44.2308 199.509 44.1046 198.973 43.8523C198.444 43.5999 198.01 43.2829 197.672 42.9013C197.333 42.5135 197.074 42.1226 196.896 41.7287H196.721V44H192.843ZM196.693 36.9091C196.693 37.7524 196.81 38.4879 197.044 39.1158C197.278 39.7436 197.616 40.233 198.059 40.5838C198.502 40.9285 199.041 41.1009 199.675 41.1009C200.315 41.1009 200.857 40.9254 201.3 40.5746C201.743 40.2176 202.079 39.7251 202.306 39.0973C202.54 38.4633 202.657 37.7339 202.657 36.9091C202.657 36.0904 202.543 35.3703 202.316 34.7486C202.088 34.1269 201.752 33.6406 201.309 33.2898C200.866 32.9389 200.321 32.7635 199.675 32.7635C199.035 32.7635 198.493 32.9328 198.05 33.2713C197.613 33.6098 197.278 34.09 197.044 34.7116C196.81 35.3333 196.693 36.0658 196.693 36.9091ZM215.761 44.277C214.302 44.277 213.047 43.9815 211.994 43.3906C210.948 42.7936 210.141 41.9503 209.575 40.8608C209.009 39.7652 208.726 38.4695 208.726 36.9737C208.726 35.5149 209.009 34.2346 209.575 33.1328C210.141 32.031 210.939 31.1723 211.966 30.5568C213.001 29.9413 214.213 29.6335 215.604 29.6335C216.54 29.6335 217.411 29.7843 218.217 30.0859C219.03 30.3814 219.738 30.8277 220.341 31.4247C220.95 32.0218 221.424 32.7727 221.763 33.6776C222.101 34.5762 222.27 35.6288 222.27 36.8352V37.9155H210.295V35.478H218.568C218.568 34.9117 218.445 34.41 218.199 33.973C217.952 33.536 217.611 33.1944 217.174 32.9482C216.743 32.6958 216.241 32.5696 215.669 32.5696C215.072 32.5696 214.542 32.7081 214.081 32.9851C213.625 33.2559 213.268 33.6222 213.01 34.0838C212.751 34.5393 212.619 35.0471 212.613 35.6072V37.9247C212.613 38.6264 212.742 39.2327 213.001 39.7436C213.265 40.2545 213.638 40.6484 214.118 40.9254C214.598 41.2024 215.167 41.3409 215.826 41.3409C216.263 41.3409 216.663 41.2794 217.026 41.1562C217.389 41.0331 217.7 40.8485 217.959 40.6023C218.217 40.3561 218.414 40.0545 218.55 39.6974L222.187 39.9375C222.003 40.8116 221.624 41.5748 221.052 42.2273C220.485 42.8736 219.753 43.3783 218.854 43.7415C217.962 44.0985 216.931 44.277 215.761 44.277ZM233.673 34.6747V37.7955H225.05V34.6747H233.673ZM242.251 44.2308C241.173 44.2308 240.198 43.9538 239.324 43.3999C238.456 42.8397 237.766 42.018 237.256 40.9347C236.751 39.8452 236.498 38.5095 236.498 36.9276C236.498 35.3026 236.76 33.9515 237.283 32.8743C237.806 31.791 238.502 30.9815 239.37 30.446C240.244 29.9044 241.201 29.6335 242.241 29.6335C243.035 29.6335 243.697 29.7689 244.226 30.0398C244.762 30.3045 245.193 30.6368 245.519 31.0369C245.851 31.4309 246.104 31.8187 246.276 32.2003H246.396V25.0909H250.32V44H246.442V41.7287H246.276C246.091 42.1226 245.83 42.5135 245.491 42.9013C245.159 43.2829 244.725 43.5999 244.189 43.8523C243.66 44.1046 243.014 44.2308 242.251 44.2308ZM243.497 41.1009C244.131 41.1009 244.666 40.9285 245.104 40.5838C245.547 40.233 245.885 39.7436 246.119 39.1158C246.359 38.4879 246.479 37.7524 246.479 36.9091C246.479 36.0658 246.362 35.3333 246.128 34.7116C245.894 34.09 245.556 33.6098 245.113 33.2713C244.67 32.9328 244.131 32.7635 243.497 32.7635C242.851 32.7635 242.306 32.9389 241.863 33.2898C241.42 33.6406 241.084 34.1269 240.856 34.7486C240.629 35.3703 240.515 36.0904 240.515 36.9091C240.515 37.7339 240.629 38.4633 240.856 39.0973C241.09 39.7251 241.426 40.2176 241.863 40.5746C242.306 40.9254 242.851 41.1009 243.497 41.1009ZM257.487 25.0909V44H253.554V25.0909H257.487ZM109.082 59.3871V56.0909H124.612V59.3871H118.823V75H114.872V59.3871H109.082ZM131.502 75.277C130.044 75.277 128.788 74.9815 127.735 74.3906C126.689 73.7936 125.883 72.9503 125.316 71.8608C124.75 70.7652 124.467 69.4695 124.467 67.9737C124.467 66.5149 124.75 65.2346 125.316 64.1328C125.883 63.031 126.68 62.1723 127.708 61.5568C128.742 60.9413 129.954 60.6335 131.345 60.6335C132.281 60.6335 133.152 60.7843 133.958 61.0859C134.771 61.3814 135.479 61.8277 136.082 62.4247C136.691 63.0218 137.165 63.7727 137.504 64.6776C137.842 65.5762 138.012 66.6288 138.012 67.8352V68.9155H126.036V66.478H134.309C134.309 65.9117 134.186 65.41 133.94 64.973C133.694 64.536 133.352 64.1944 132.915 63.9482C132.484 63.6958 131.983 63.5696 131.41 63.5696C130.813 63.5696 130.284 63.7081 129.822 63.9851C129.367 64.2559 129.009 64.6222 128.751 65.0838C128.492 65.5393 128.36 66.0471 128.354 66.6072V68.9247C128.354 69.6264 128.483 70.2327 128.742 70.7436C129.006 71.2545 129.379 71.6484 129.859 71.9254C130.339 72.2024 130.908 72.3409 131.567 72.3409C132.004 72.3409 132.404 72.2794 132.767 72.1562C133.13 72.0331 133.441 71.8485 133.7 71.6023C133.958 71.3561 134.155 71.0545 134.291 70.6974L137.929 70.9375C137.744 71.8116 137.365 72.5748 136.793 73.2273C136.227 73.8736 135.494 74.3783 134.595 74.7415C133.703 75.0985 132.672 75.277 131.502 75.277ZM140.578 75V60.8182H144.392V63.2926H144.539C144.798 62.4124 145.232 61.7476 145.841 61.2983C146.451 60.8428 147.152 60.6151 147.946 60.6151C148.143 60.6151 148.356 60.6274 148.583 60.652C148.811 60.6766 149.011 60.7105 149.184 60.7536V64.2436C148.999 64.1882 148.743 64.139 148.417 64.0959C148.091 64.0528 147.792 64.0312 147.522 64.0312C146.943 64.0312 146.426 64.1574 145.97 64.4098C145.521 64.656 145.164 65.0007 144.899 65.4439C144.641 65.8871 144.512 66.398 144.512 66.9766V75H140.578ZM151.217 75V60.8182H154.966V63.3203H155.132C155.427 62.4893 155.92 61.8338 156.609 61.3537C157.299 60.8736 158.123 60.6335 159.084 60.6335C160.056 60.6335 160.884 60.8767 161.567 61.3629C162.25 61.843 162.706 62.4955 162.934 63.3203H163.081C163.371 62.5078 163.894 61.8584 164.651 61.3722C165.414 60.8797 166.316 60.6335 167.356 60.6335C168.68 60.6335 169.754 61.0552 170.579 61.8984C171.41 62.7356 171.825 63.9235 171.825 65.4624V75H167.901V66.2379C167.901 65.45 167.692 64.8591 167.273 64.4652C166.855 64.0713 166.331 63.8743 165.704 63.8743C164.99 63.8743 164.432 64.102 164.032 64.5575C163.632 65.0069 163.432 65.6009 163.432 66.3395V75H159.619V66.1548C159.619 65.4593 159.419 64.9053 159.019 64.4929C158.625 64.0805 158.105 63.8743 157.459 63.8743C157.022 63.8743 156.628 63.9851 156.277 64.2067C155.932 64.4221 155.658 64.7268 155.455 65.1207C155.252 65.5085 155.15 65.964 155.15 66.4872V75H151.217ZM174.932 75V60.8182H178.865V75H174.932ZM176.908 58.9901C176.323 58.9901 175.821 58.7962 175.403 58.4084C174.99 58.0144 174.784 57.5436 174.784 56.9957C174.784 56.4541 174.99 55.9893 175.403 55.6016C175.821 55.2076 176.323 55.0107 176.908 55.0107C177.493 55.0107 177.991 55.2076 178.403 55.6016C178.822 55.9893 179.031 56.4541 179.031 56.9957C179.031 57.5436 178.822 58.0144 178.403 58.4084C177.991 58.7962 177.493 58.9901 176.908 58.9901ZM185.949 66.8011V75H182.016V60.8182H185.764V63.3203H185.931C186.245 62.4955 186.771 61.843 187.509 61.3629C188.248 60.8767 189.144 60.6335 190.196 60.6335C191.181 60.6335 192.04 60.849 192.772 61.2798C193.505 61.7107 194.074 62.3262 194.48 63.1264C194.887 63.9205 195.09 64.8684 195.09 65.9702V75H191.157V66.6719C191.163 65.804 190.941 65.1269 190.492 64.6406C190.042 64.1482 189.424 63.902 188.636 63.902C188.107 63.902 187.639 64.0159 187.233 64.2436C186.832 64.4714 186.518 64.8037 186.291 65.2408C186.069 65.6716 185.955 66.1918 185.949 66.8011ZM202.234 75.2678C201.329 75.2678 200.523 75.1108 199.815 74.7969C199.107 74.4768 198.547 74.0059 198.134 73.3842C197.728 72.7564 197.525 71.9747 197.525 71.0391C197.525 70.2512 197.67 69.5895 197.959 69.054C198.248 68.5185 198.642 68.0876 199.141 67.7614C199.639 67.4351 200.206 67.1889 200.84 67.0227C201.48 66.8565 202.151 66.7396 202.852 66.6719C203.677 66.5857 204.342 66.5057 204.847 66.4318C205.351 66.3518 205.718 66.2348 205.945 66.081C206.173 65.9271 206.287 65.6993 206.287 65.3977V65.3423C206.287 64.7576 206.102 64.3052 205.733 63.9851C205.37 63.665 204.853 63.505 204.182 63.505C203.474 63.505 202.911 63.6619 202.492 63.9759C202.074 64.2836 201.797 64.6714 201.661 65.1392L198.024 64.8438C198.208 63.982 198.571 63.2372 199.113 62.6094C199.655 61.9754 200.353 61.4891 201.209 61.1506C202.071 60.8059 203.068 60.6335 204.2 60.6335C204.988 60.6335 205.742 60.7259 206.462 60.9105C207.189 61.0952 207.832 61.3814 208.392 61.7692C208.958 62.157 209.405 62.6555 209.731 63.2649C210.057 63.8681 210.22 64.5914 210.22 65.4347V75H206.49V73.0334H206.379C206.152 73.4766 205.847 73.8674 205.465 74.206C205.084 74.5384 204.625 74.8 204.09 74.9908C203.554 75.1754 202.935 75.2678 202.234 75.2678ZM203.36 72.5533C203.939 72.5533 204.45 72.4394 204.893 72.2116C205.336 71.9777 205.684 71.6638 205.936 71.2699C206.189 70.8759 206.315 70.4297 206.315 69.9311V68.4261C206.192 68.5062 206.022 68.58 205.807 68.6477C205.598 68.7093 205.361 68.7678 205.096 68.8232C204.831 68.8724 204.567 68.9186 204.302 68.9616C204.037 68.9986 203.797 69.0324 203.582 69.0632C203.12 69.1309 202.717 69.2386 202.372 69.3864C202.028 69.5341 201.76 69.7341 201.569 69.9865C201.378 70.2327 201.283 70.5405 201.283 70.9098C201.283 71.4453 201.477 71.8546 201.864 72.1378C202.258 72.4148 202.757 72.5533 203.36 72.5533ZM217.205 56.0909V75H213.272V56.0909H217.205ZM238.986 62.2031C238.856 61.7538 238.675 61.3568 238.441 61.0121C238.207 60.6612 237.921 60.3658 237.582 60.1257C237.25 59.8795 236.868 59.6918 236.437 59.5625C236.013 59.4332 235.542 59.3686 235.025 59.3686C234.058 59.3686 233.209 59.6087 232.476 60.0888C231.75 60.5689 231.184 61.2675 230.777 62.1847C230.371 63.0956 230.168 64.2098 230.168 65.527C230.168 66.8442 230.368 67.9645 230.768 68.8878C231.168 69.8111 231.735 70.5159 232.467 71.0021C233.2 71.4822 234.064 71.7223 235.062 71.7223C235.966 71.7223 236.739 71.5623 237.379 71.2422C238.025 70.916 238.518 70.4574 238.856 69.8665C239.201 69.2756 239.373 68.5769 239.373 67.7706L240.186 67.8906H235.311V64.8807H243.223V67.2628C243.223 68.9247 242.873 70.3527 242.171 71.5469C241.469 72.7348 240.503 73.652 239.272 74.2983C238.041 74.9384 236.631 75.2585 235.043 75.2585C233.27 75.2585 231.713 74.8677 230.371 74.0859C229.029 73.2981 227.983 72.1809 227.232 70.7344C226.487 69.2817 226.115 67.5582 226.115 65.5639C226.115 64.0312 226.336 62.6648 226.78 61.4645C227.229 60.258 227.857 59.2363 228.663 58.3991C229.469 57.562 230.408 56.925 231.479 56.4879C232.55 56.0509 233.71 55.8324 234.96 55.8324C236.031 55.8324 237.028 55.9893 237.951 56.3033C238.875 56.611 239.693 57.0481 240.407 57.6143C241.128 58.1806 241.715 58.8546 242.171 59.6364C242.626 60.4119 242.919 61.2675 243.048 62.2031H238.986ZM255.247 68.9616V60.8182H259.18V75H255.404V72.424H255.256C254.936 73.255 254.404 73.9228 253.659 74.4276C252.92 74.9323 252.019 75.1847 250.954 75.1847C250.006 75.1847 249.172 74.9692 248.452 74.5384C247.731 74.1075 247.168 73.495 246.762 72.701C246.362 71.907 246.159 70.956 246.153 69.848V60.8182H250.086V69.1463C250.092 69.9834 250.317 70.6451 250.76 71.1314C251.203 71.6177 251.797 71.8608 252.542 71.8608C253.016 71.8608 253.459 71.7531 253.871 71.5376C254.284 71.3161 254.616 70.9898 254.869 70.5589C255.127 70.1281 255.253 69.5956 255.247 68.9616ZM262.326 75V60.8182H266.26V75H262.326ZM264.302 58.9901C263.718 58.9901 263.216 58.7962 262.797 58.4084C262.385 58.0144 262.179 57.5436 262.179 56.9957C262.179 56.4541 262.385 55.9893 262.797 55.6016C263.216 55.2076 263.718 55.0107 264.302 55.0107C264.887 55.0107 265.386 55.2076 265.798 55.6016C266.217 55.9893 266.426 56.4541 266.426 56.9957C266.426 57.5436 266.217 58.0144 265.798 58.4084C265.386 58.7962 264.887 58.9901 264.302 58.9901Z" fill="white"/>
</svg>
