<svg width="304" height="304" viewBox="0 0 304 304" fill="none" xmlns="http://www.w3.org/2000/svg">
<circle cx="152" cy="152" r="152" fill="#FF5353"/>
<path d="M112.289 34.2109L102.66 52.1797V63H96.6445V52.1797L86.6836 34.2109H93.7734L99.75 46.75L105.473 34.2109H112.289ZM130.062 44.4062C131.859 46.6589 132.758 49.3216 132.758 52.3945C132.758 55.5195 131.859 58.1953 130.062 60.4219C128.266 62.6354 125.538 63.7422 121.879 63.7422C118.22 63.7422 115.492 62.6354 113.695 60.4219C111.898 58.1953 111 55.5195 111 52.3945C111 49.3216 111.898 46.6589 113.695 44.4062C115.492 42.1536 118.22 41.0273 121.879 41.0273C125.538 41.0273 128.266 42.1536 130.062 44.4062ZM121.859 45.7344C120.232 45.7344 118.975 46.3138 118.09 47.4727C117.217 48.6185 116.781 50.2591 116.781 52.3945C116.781 54.5299 117.217 56.1771 118.09 57.3359C118.975 58.4948 120.232 59.0742 121.859 59.0742C123.487 59.0742 124.737 58.4948 125.609 57.3359C126.482 56.1771 126.918 54.5299 126.918 52.3945C126.918 50.2591 126.482 48.6185 125.609 47.4727C124.737 46.3138 123.487 45.7344 121.859 45.7344ZM150.414 59.9922C150.362 60.0573 150.232 60.2526 150.023 60.5781C149.815 60.9036 149.568 61.1901 149.281 61.4375C148.409 62.2188 147.562 62.7526 146.742 63.0391C145.935 63.3255 144.984 63.4688 143.891 63.4688C140.74 63.4688 138.617 62.3359 137.523 60.0703C136.911 58.8203 136.605 56.9779 136.605 54.543V41.7109H142.309V54.543C142.309 55.7539 142.452 56.6654 142.738 57.2773C143.246 58.3581 144.242 58.8984 145.727 58.8984C147.628 58.8984 148.93 58.1302 149.633 56.5938C149.997 55.7604 150.18 54.6602 150.18 53.293V41.7109H155.824V63H150.414V59.9922ZM182.582 34.2109V39.3086H173.969V63H167.914V39.3086H159.262V34.2109H182.582ZM200.922 56.75C200.779 58.013 200.121 59.2956 198.949 60.5977C197.126 62.668 194.574 63.7031 191.293 63.7031C188.585 63.7031 186.195 62.8307 184.125 61.0859C182.055 59.3411 181.02 56.5026 181.02 52.5703C181.02 48.8854 181.951 46.0599 183.812 44.0938C185.688 42.1276 188.116 41.1445 191.098 41.1445C192.868 41.1445 194.464 41.4766 195.883 42.1406C197.302 42.8047 198.474 43.8529 199.398 45.2852C200.232 46.5482 200.772 48.013 201.02 49.6797C201.163 50.6562 201.221 52.0625 201.195 53.8984H186.625C186.703 56.0339 187.374 57.5312 188.637 58.3906C189.405 58.9245 190.329 59.1914 191.41 59.1914C192.556 59.1914 193.487 58.8659 194.203 58.2148C194.594 57.8633 194.939 57.375 195.238 56.75H200.922ZM195.414 50.2266C195.323 48.7552 194.874 47.6419 194.066 46.8867C193.272 46.1185 192.283 45.7344 191.098 45.7344C189.809 45.7344 188.806 46.138 188.09 46.9453C187.387 47.7526 186.944 48.8464 186.762 50.2266H195.414ZM215.668 46.8477C213.428 46.8477 211.924 47.5768 211.156 49.0352C210.727 49.8555 210.512 51.1185 210.512 52.8242V63H204.906V41.7109H210.219V45.4219C211.078 44.0026 211.827 43.0326 212.465 42.5117C213.507 41.6393 214.861 41.2031 216.527 41.2031C216.632 41.2031 216.716 41.2096 216.781 41.2227C216.859 41.2227 217.022 41.2292 217.27 41.2422V46.9453C216.918 46.9062 216.605 46.8802 216.332 46.8672C216.059 46.8542 215.837 46.8477 215.668 46.8477Z" fill="#F1F1F1"/>
<circle cx="152.5" cy="175.5" r="87.5" fill="#5F6DEA"/>
<path d="M104.431 166.007L98.4126 177.237V184H94.6528V177.237L88.4272 166.007H92.8584L96.5938 173.844L100.17 166.007H104.431ZM115.539 172.379C116.662 173.787 117.224 175.451 117.224 177.372C117.224 179.325 116.662 180.997 115.539 182.389C114.416 183.772 112.711 184.464 110.424 184.464C108.138 184.464 106.433 183.772 105.31 182.389C104.187 180.997 103.625 179.325 103.625 177.372C103.625 175.451 104.187 173.787 105.31 172.379C106.433 170.971 108.138 170.267 110.424 170.267C112.711 170.267 114.416 170.971 115.539 172.379ZM110.412 173.209C109.395 173.209 108.61 173.571 108.056 174.295C107.511 175.012 107.238 176.037 107.238 177.372C107.238 178.706 107.511 179.736 108.056 180.46C108.61 181.184 109.395 181.546 110.412 181.546C111.429 181.546 112.211 181.184 112.756 180.46C113.301 179.736 113.574 178.706 113.574 177.372C113.574 176.037 113.301 175.012 112.756 174.295C112.211 173.571 111.429 173.209 110.412 173.209ZM128.259 182.12C128.226 182.161 128.145 182.283 128.015 182.486C127.884 182.69 127.73 182.869 127.551 183.023C127.006 183.512 126.477 183.845 125.964 184.024C125.459 184.203 124.865 184.293 124.182 184.293C122.212 184.293 120.886 183.585 120.202 182.169C119.82 181.388 119.628 180.236 119.628 178.714V170.694H123.193V178.714C123.193 179.471 123.282 180.041 123.461 180.423C123.779 181.099 124.401 181.437 125.329 181.437C126.517 181.437 127.331 180.956 127.771 179.996C127.998 179.475 128.112 178.788 128.112 177.933V170.694H131.64V184H128.259V182.12ZM141.101 181.522V184.122L139.453 184.183C137.809 184.24 136.686 183.955 136.083 183.329C135.693 182.93 135.498 182.315 135.498 181.485V173.294H133.642V170.816H135.498V167.105H138.94V170.816H141.101V173.294H138.94V180.326C138.94 180.871 139.009 181.213 139.147 181.351C139.286 181.481 139.709 181.546 140.417 181.546C140.523 181.546 140.633 181.546 140.747 181.546C140.869 181.538 140.987 181.53 141.101 181.522ZM151.867 182.12C151.835 182.161 151.753 182.283 151.623 182.486C151.493 182.69 151.338 182.869 151.159 183.023C150.614 183.512 150.085 183.845 149.572 184.024C149.068 184.203 148.474 184.293 147.79 184.293C145.821 184.293 144.494 183.585 143.811 182.169C143.428 181.388 143.237 180.236 143.237 178.714V170.694H146.801V178.714C146.801 179.471 146.891 180.041 147.07 180.423C147.387 181.099 148.01 181.437 148.938 181.437C150.126 181.437 150.939 180.956 151.379 179.996C151.607 179.475 151.721 178.788 151.721 177.933V170.694H155.249V184H151.867V182.12ZM165.844 184.354C164.746 184.354 163.863 184.134 163.195 183.695C162.797 183.434 162.365 182.979 161.901 182.328V184H158.496V166.031H161.962V172.428C162.402 171.809 162.886 171.337 163.415 171.012C164.042 170.605 164.839 170.401 165.808 170.401C167.557 170.401 168.924 171.032 169.909 172.293C170.902 173.555 171.398 175.182 171.398 177.176C171.398 179.243 170.91 180.956 169.934 182.315C168.957 183.674 167.594 184.354 165.844 184.354ZM167.749 177.542C167.749 176.598 167.626 175.817 167.382 175.199C166.918 174.027 166.064 173.441 164.819 173.441C163.557 173.441 162.691 174.015 162.219 175.162C161.975 175.772 161.853 176.562 161.853 177.53C161.853 178.67 162.105 179.614 162.609 180.362C163.114 181.111 163.883 181.485 164.917 181.485C165.812 181.485 166.507 181.123 167.004 180.399C167.5 179.675 167.749 178.722 167.749 177.542ZM185.29 180.094C185.201 180.883 184.79 181.685 184.057 182.499C182.918 183.792 181.323 184.439 179.272 184.439C177.579 184.439 176.086 183.894 174.792 182.804C173.498 181.713 172.851 179.939 172.851 177.481C172.851 175.178 173.433 173.412 174.597 172.184C175.769 170.955 177.286 170.34 179.15 170.34C180.257 170.34 181.254 170.548 182.141 170.963C183.028 171.378 183.76 172.033 184.338 172.928C184.859 173.718 185.196 174.633 185.351 175.675C185.441 176.285 185.477 177.164 185.461 178.312H176.354C176.403 179.646 176.822 180.582 177.612 181.119C178.092 181.453 178.67 181.62 179.345 181.62C180.061 181.62 180.643 181.416 181.091 181.009C181.335 180.79 181.551 180.484 181.738 180.094H185.29ZM181.848 176.017C181.791 175.097 181.51 174.401 181.005 173.929C180.509 173.449 179.89 173.209 179.15 173.209C178.344 173.209 177.718 173.461 177.27 173.966C176.831 174.47 176.554 175.154 176.44 176.017H181.848ZM186.767 175.382H193.774V178.678H186.767V175.382ZM208.251 166.031V184H204.87V182.157C204.374 182.946 203.808 183.52 203.173 183.878C202.539 184.236 201.749 184.415 200.805 184.415C199.251 184.415 197.941 183.788 196.875 182.535C195.817 181.274 195.288 179.658 195.288 177.689C195.288 175.418 195.808 173.632 196.85 172.33C197.9 171.028 199.3 170.377 201.049 170.377C201.855 170.377 202.571 170.556 203.198 170.914C203.824 171.264 204.333 171.752 204.724 172.379V166.031H208.251ZM198.876 177.433C198.876 178.661 199.121 179.642 199.609 180.375C200.089 181.115 200.821 181.485 201.806 181.485C202.791 181.485 203.54 181.119 204.052 180.387C204.565 179.654 204.821 178.706 204.821 177.542C204.821 175.915 204.41 174.751 203.588 174.051C203.084 173.628 202.498 173.417 201.831 173.417C200.813 173.417 200.065 173.803 199.584 174.576C199.112 175.341 198.876 176.293 198.876 177.433ZM211.499 166.007H214.978V184H211.499V166.007Z" fill="#F1F1F1"/>
</svg>
