<svg width="376" height="376" viewBox="0 0 376 376" fill="none" xmlns="http://www.w3.org/2000/svg">
<circle cx="188" cy="188" r="188" fill="#6085E6"/>
<circle cx="188.5" cy="188.5" r="101.5" fill="#DC315A"/>
<path d="M114.536 179.091H119.013L123.325 187.234H123.51L127.822 179.091H132.3L125.403 191.315V198H121.433V191.315L114.536 179.091ZM137.846 198.277C136.412 198.277 135.172 197.972 134.126 197.363C133.085 196.747 132.282 195.892 131.716 194.796C131.149 193.694 130.866 192.417 130.866 190.964C130.866 189.5 131.149 188.219 131.716 187.124C132.282 186.022 133.085 185.166 134.126 184.557C135.172 183.941 136.412 183.634 137.846 183.634C139.281 183.634 140.518 183.941 141.558 184.557C142.604 185.166 143.411 186.022 143.977 187.124C144.543 188.219 144.827 189.5 144.827 190.964C144.827 192.417 144.543 193.694 143.977 194.796C143.411 195.892 142.604 196.747 141.558 197.363C140.518 197.972 139.281 198.277 137.846 198.277ZM137.865 195.23C138.517 195.23 139.062 195.045 139.499 194.676C139.936 194.301 140.265 193.79 140.487 193.143C140.715 192.497 140.829 191.762 140.829 190.937C140.829 190.112 140.715 189.376 140.487 188.73C140.265 188.084 139.936 187.573 139.499 187.197C139.062 186.822 138.517 186.634 137.865 186.634C137.206 186.634 136.652 186.822 136.203 187.197C135.76 187.573 135.424 188.084 135.197 188.73C134.975 189.376 134.864 190.112 134.864 190.937C134.864 191.762 134.975 192.497 135.197 193.143C135.424 193.79 135.76 194.301 136.203 194.676C136.652 195.045 137.206 195.23 137.865 195.23ZM156.479 191.962V183.818H160.412V198H156.635V195.424H156.488C156.168 196.255 155.635 196.923 154.89 197.428C154.152 197.932 153.25 198.185 152.185 198.185C151.237 198.185 150.403 197.969 149.683 197.538C148.963 197.107 148.4 196.495 147.993 195.701C147.593 194.907 147.39 193.956 147.384 192.848V183.818H151.317V192.146C151.323 192.983 151.548 193.645 151.991 194.131C152.434 194.618 153.028 194.861 153.773 194.861C154.247 194.861 154.69 194.753 155.103 194.538C155.515 194.316 155.848 193.99 156.1 193.559C156.358 193.128 156.485 192.596 156.479 191.962ZM171.101 183.818V186.773H162.561V183.818H171.101ZM164.5 180.42H168.433V193.642C168.433 194.005 168.488 194.288 168.599 194.491C168.71 194.688 168.864 194.827 169.061 194.907C169.264 194.987 169.498 195.027 169.762 195.027C169.947 195.027 170.132 195.012 170.316 194.981C170.501 194.944 170.643 194.916 170.741 194.898L171.36 197.825C171.163 197.886 170.886 197.957 170.529 198.037C170.172 198.123 169.738 198.175 169.227 198.194C168.279 198.231 167.448 198.105 166.734 197.815C166.026 197.526 165.475 197.077 165.081 196.467C164.687 195.858 164.493 195.089 164.5 194.159V180.42ZM182.758 191.962V183.818H186.691V198H182.915V195.424H182.767C182.447 196.255 181.915 196.923 181.17 197.428C180.431 197.932 179.529 198.185 178.464 198.185C177.517 198.185 176.683 197.969 175.962 197.538C175.242 197.107 174.679 196.495 174.273 195.701C173.873 194.907 173.67 193.956 173.663 192.848V183.818H177.597V192.146C177.603 192.983 177.827 193.645 178.271 194.131C178.714 194.618 179.308 194.861 180.053 194.861C180.527 194.861 180.97 194.753 181.382 194.538C181.795 194.316 182.127 193.99 182.379 193.559C182.638 193.128 182.764 192.596 182.758 191.962ZM189.911 198V179.091H193.844V186.2H193.964C194.137 185.819 194.386 185.431 194.712 185.037C195.045 184.637 195.475 184.304 196.005 184.04C196.54 183.769 197.205 183.634 197.999 183.634C199.033 183.634 199.987 183.904 200.861 184.446C201.735 184.982 202.434 185.791 202.957 186.874C203.48 187.951 203.742 189.303 203.742 190.928C203.742 192.509 203.487 193.845 202.976 194.935C202.471 196.018 201.782 196.84 200.907 197.4C200.04 197.954 199.067 198.231 197.99 198.231C197.227 198.231 196.577 198.105 196.042 197.852C195.512 197.6 195.078 197.283 194.74 196.901C194.401 196.513 194.143 196.123 193.964 195.729H193.789V198H189.911ZM193.761 190.909C193.761 191.752 193.878 192.488 194.112 193.116C194.346 193.744 194.684 194.233 195.128 194.584C195.571 194.929 196.109 195.101 196.743 195.101C197.384 195.101 197.925 194.925 198.368 194.575C198.812 194.218 199.147 193.725 199.375 193.097C199.609 192.463 199.726 191.734 199.726 190.909C199.726 190.09 199.612 189.37 199.384 188.749C199.156 188.127 198.821 187.641 198.378 187.29C197.934 186.939 197.39 186.763 196.743 186.763C196.103 186.763 195.562 186.933 195.118 187.271C194.681 187.61 194.346 188.09 194.112 188.712C193.878 189.333 193.761 190.066 193.761 190.909ZM212.83 198.277C211.371 198.277 210.115 197.982 209.062 197.391C208.016 196.794 207.21 195.95 206.643 194.861C206.077 193.765 205.794 192.469 205.794 190.974C205.794 189.515 206.077 188.235 206.643 187.133C207.21 186.031 208.007 185.172 209.035 184.557C210.069 183.941 211.281 183.634 212.673 183.634C213.608 183.634 214.479 183.784 215.286 184.086C216.098 184.381 216.806 184.828 217.409 185.425C218.018 186.022 218.492 186.773 218.831 187.678C219.17 188.576 219.339 189.629 219.339 190.835V191.915H207.364V189.478H215.636C215.636 188.912 215.513 188.41 215.267 187.973C215.021 187.536 214.679 187.194 214.242 186.948C213.811 186.696 213.31 186.57 212.737 186.57C212.14 186.57 211.611 186.708 211.149 186.985C210.694 187.256 210.337 187.622 210.078 188.084C209.82 188.539 209.687 189.047 209.681 189.607V191.925C209.681 192.626 209.81 193.233 210.069 193.744C210.334 194.254 210.706 194.648 211.186 194.925C211.666 195.202 212.236 195.341 212.894 195.341C213.331 195.341 213.731 195.279 214.094 195.156C214.458 195.033 214.768 194.848 215.027 194.602C215.286 194.356 215.482 194.054 215.618 193.697L219.256 193.938C219.071 194.812 218.692 195.575 218.12 196.227C217.554 196.874 216.821 197.378 215.923 197.741C215.03 198.098 213.999 198.277 212.83 198.277ZM230.741 188.675V191.795H222.118V188.675H230.741ZM239.319 198.231C238.242 198.231 237.266 197.954 236.392 197.4C235.524 196.84 234.835 196.018 234.324 194.935C233.819 193.845 233.567 192.509 233.567 190.928C233.567 189.303 233.828 187.951 234.352 186.874C234.875 185.791 235.57 184.982 236.438 184.446C237.312 183.904 238.269 183.634 239.31 183.634C240.104 183.634 240.765 183.769 241.295 184.04C241.83 184.304 242.261 184.637 242.587 185.037C242.92 185.431 243.172 185.819 243.344 186.2H243.464V179.091H247.388V198H243.511V195.729H243.344C243.16 196.123 242.898 196.513 242.56 196.901C242.227 197.283 241.793 197.6 241.258 197.852C240.728 198.105 240.082 198.231 239.319 198.231ZM240.565 195.101C241.199 195.101 241.735 194.929 242.172 194.584C242.615 194.233 242.954 193.744 243.188 193.116C243.428 192.488 243.548 191.752 243.548 190.909C243.548 190.066 243.431 189.333 243.197 188.712C242.963 188.09 242.624 187.61 242.181 187.271C241.738 186.933 241.199 186.763 240.565 186.763C239.919 186.763 239.374 186.939 238.931 187.29C238.488 187.641 238.152 188.127 237.925 188.749C237.697 189.37 237.583 190.09 237.583 190.909C237.583 191.734 237.697 192.463 237.925 193.097C238.159 193.725 238.494 194.218 238.931 194.575C239.374 194.925 239.919 195.101 240.565 195.101ZM254.556 179.091V198H250.622V179.091H254.556Z" fill="white"/>
<path d="M156.878 25.0909H161.356L165.668 33.2344H165.853L170.165 25.0909H174.642L167.745 37.3153V44H163.775V37.3153L156.878 25.0909ZM184.296 29.8182V32.7727H175.755V29.8182H184.296ZM177.694 26.4205H181.627V39.642C181.627 40.0052 181.683 40.2884 181.793 40.4915C181.904 40.6884 182.058 40.8269 182.255 40.907C182.458 40.987 182.692 41.027 182.957 41.027C183.141 41.027 183.326 41.0116 183.511 40.9808C183.695 40.9439 183.837 40.9162 183.935 40.8977L184.554 43.8246C184.357 43.8861 184.08 43.9569 183.723 44.0369C183.366 44.1231 182.932 44.1754 182.421 44.1939C181.473 44.2308 180.642 44.1046 179.928 43.8153C179.22 43.526 178.67 43.0767 178.276 42.4673C177.882 41.858 177.688 41.0885 177.694 40.1591V26.4205ZM195.262 34.6747V37.7955H186.638V34.6747H195.262ZM203.839 44.2308C202.762 44.2308 201.787 43.9538 200.913 43.3999C200.045 42.8397 199.355 42.018 198.844 40.9347C198.34 39.8452 198.087 38.5095 198.087 36.9276C198.087 35.3026 198.349 33.9515 198.872 32.8743C199.395 31.791 200.091 30.9815 200.959 30.446C201.833 29.9044 202.79 29.6335 203.83 29.6335C204.624 29.6335 205.286 29.7689 205.815 30.0398C206.351 30.3045 206.782 30.6368 207.108 31.0369C207.44 31.4309 207.693 31.8187 207.865 32.2003H207.985V25.0909H211.909V44H208.031V41.7287H207.865C207.68 42.1226 207.419 42.5135 207.08 42.9013C206.748 43.2829 206.314 43.5999 205.778 43.8523C205.249 44.1046 204.603 44.2308 203.839 44.2308ZM205.086 41.1009C205.72 41.1009 206.255 40.9285 206.692 40.5838C207.136 40.233 207.474 39.7436 207.708 39.1158C207.948 38.4879 208.068 37.7524 208.068 36.9091C208.068 36.0658 207.951 35.3333 207.717 34.7116C207.483 34.09 207.145 33.6098 206.702 33.2713C206.258 32.9328 205.72 32.7635 205.086 32.7635C204.44 32.7635 203.895 32.9389 203.452 33.2898C203.008 33.6406 202.673 34.1269 202.445 34.7486C202.217 35.3703 202.104 36.0904 202.104 36.9091C202.104 37.7339 202.217 38.4633 202.445 39.0973C202.679 39.7251 203.015 40.2176 203.452 40.5746C203.895 40.9254 204.44 41.1009 205.086 41.1009ZM219.076 25.0909V44H215.143V25.0909H219.076ZM119.682 75.2308C118.605 75.2308 117.629 74.9538 116.755 74.3999C115.887 73.8397 115.198 73.018 114.687 71.9347C114.182 70.8452 113.93 69.5095 113.93 67.9276C113.93 66.3026 114.192 64.9515 114.715 63.8743C115.238 62.791 115.934 61.9815 116.801 61.446C117.676 60.9044 118.633 60.6335 119.673 60.6335C120.467 60.6335 121.129 60.7689 121.658 61.0398C122.194 61.3045 122.624 61.6368 122.951 62.0369C123.283 62.4309 123.535 62.8187 123.708 63.2003H123.828V56.0909H127.752V75H123.874V72.7287H123.708C123.523 73.1226 123.261 73.5135 122.923 73.9013C122.591 74.2829 122.157 74.5999 121.621 74.8523C121.092 75.1046 120.445 75.2308 119.682 75.2308ZM120.929 72.1009C121.563 72.1009 122.098 71.9285 122.535 71.5838C122.978 71.233 123.317 70.7436 123.551 70.1158C123.791 69.4879 123.911 68.7524 123.911 67.9091C123.911 67.0658 123.794 66.3333 123.56 65.7116C123.326 65.09 122.988 64.6098 122.544 64.2713C122.101 63.9328 121.563 63.7635 120.929 63.7635C120.282 63.7635 119.738 63.9389 119.294 64.2898C118.851 64.6406 118.516 65.1269 118.288 65.7486C118.06 66.3703 117.946 67.0904 117.946 67.9091C117.946 68.7339 118.06 69.4633 118.288 70.0973C118.522 70.7251 118.857 71.2176 119.294 71.5746C119.738 71.9254 120.282 72.1009 120.929 72.1009ZM137.393 75.277C135.959 75.277 134.719 74.9723 133.672 74.3629C132.632 73.7474 131.829 72.8918 131.263 71.7962C130.696 70.6944 130.413 69.4171 130.413 67.9645C130.413 66.4995 130.696 65.2192 131.263 64.1236C131.829 63.0218 132.632 62.1662 133.672 61.5568C134.719 60.9413 135.959 60.6335 137.393 60.6335C138.827 60.6335 140.065 60.9413 141.105 61.5568C142.151 62.1662 142.958 63.0218 143.524 64.1236C144.09 65.2192 144.373 66.4995 144.373 67.9645C144.373 69.4171 144.09 70.6944 143.524 71.7962C142.958 72.8918 142.151 73.7474 141.105 74.3629C140.065 74.9723 138.827 75.277 137.393 75.277ZM137.412 72.2301C138.064 72.2301 138.609 72.0455 139.046 71.6761C139.483 71.3007 139.812 70.7898 140.034 70.1435C140.262 69.4972 140.376 68.7616 140.376 67.9368C140.376 67.112 140.262 66.3764 140.034 65.7301C139.812 65.0838 139.483 64.5729 139.046 64.1974C138.609 63.822 138.064 63.6342 137.412 63.6342C136.753 63.6342 136.199 63.822 135.75 64.1974C135.307 64.5729 134.971 65.0838 134.743 65.7301C134.522 66.3764 134.411 67.112 134.411 67.9368C134.411 68.7616 134.522 69.4972 134.743 70.1435C134.971 70.7898 135.307 71.3007 135.75 71.6761C136.199 72.0455 136.753 72.2301 137.412 72.2301ZM149.373 75L145.514 60.8182H149.493L151.691 70.3466H151.82L154.11 60.8182H158.015L160.342 70.2912H160.462L162.622 60.8182H166.593L162.742 75H158.578L156.141 66.081H155.965L153.528 75H149.373ZM172.624 66.8011V75H168.691V60.8182H172.439V63.3203H172.605C172.919 62.4955 173.446 61.843 174.184 61.3629C174.923 60.8767 175.819 60.6335 176.871 60.6335C177.856 60.6335 178.715 60.849 179.447 61.2798C180.18 61.7107 180.749 62.3262 181.155 63.1264C181.561 63.9205 181.765 64.8684 181.765 65.9702V75H177.831V66.6719C177.837 65.804 177.616 65.1269 177.167 64.6406C176.717 64.1482 176.099 63.902 175.311 63.902C174.781 63.902 174.314 64.0159 173.907 64.2436C173.507 64.4714 173.193 64.8037 172.966 65.2408C172.744 65.6716 172.63 66.1918 172.624 66.8011ZM188.798 56.0909V75H184.865V56.0909H188.798ZM198.356 75.277C196.922 75.277 195.682 74.9723 194.635 74.3629C193.595 73.7474 192.792 72.8918 192.225 71.7962C191.659 70.6944 191.376 69.4171 191.376 67.9645C191.376 66.4995 191.659 65.2192 192.225 64.1236C192.792 63.0218 193.595 62.1662 194.635 61.5568C195.682 60.9413 196.922 60.6335 198.356 60.6335C199.79 60.6335 201.028 60.9413 202.068 61.5568C203.114 62.1662 203.921 63.0218 204.487 64.1236C205.053 65.2192 205.336 66.4995 205.336 67.9645C205.336 69.4171 205.053 70.6944 204.487 71.7962C203.921 72.8918 203.114 73.7474 202.068 74.3629C201.028 74.9723 199.79 75.277 198.356 75.277ZM198.375 72.2301C199.027 72.2301 199.572 72.0455 200.009 71.6761C200.446 71.3007 200.775 70.7898 200.997 70.1435C201.225 69.4972 201.338 68.7616 201.338 67.9368C201.338 67.112 201.225 66.3764 200.997 65.7301C200.775 65.0838 200.446 64.5729 200.009 64.1974C199.572 63.822 199.027 63.6342 198.375 63.6342C197.716 63.6342 197.162 63.822 196.713 64.1974C196.27 64.5729 195.934 65.0838 195.706 65.7301C195.485 66.3764 195.374 67.112 195.374 67.9368C195.374 68.7616 195.485 69.4972 195.706 70.1435C195.934 70.7898 196.27 71.3007 196.713 71.6761C197.162 72.0455 197.716 72.2301 198.375 72.2301ZM211.938 75.2678C211.033 75.2678 210.227 75.1108 209.519 74.7969C208.811 74.4768 208.251 74.0059 207.838 73.3842C207.432 72.7564 207.229 71.9747 207.229 71.0391C207.229 70.2512 207.374 69.5895 207.663 69.054C207.952 68.5185 208.346 68.0876 208.845 67.7614C209.343 67.4351 209.91 67.1889 210.544 67.0227C211.184 66.8565 211.855 66.7396 212.556 66.6719C213.381 66.5857 214.046 66.5057 214.551 66.4318C215.056 66.3518 215.422 66.2348 215.65 66.081C215.877 65.9271 215.991 65.6993 215.991 65.3977V65.3423C215.991 64.7576 215.806 64.3052 215.437 63.9851C215.074 63.665 214.557 63.505 213.886 63.505C213.178 63.505 212.615 63.6619 212.196 63.9759C211.778 64.2836 211.501 64.6714 211.365 65.1392L207.728 64.8438C207.912 63.982 208.275 63.2372 208.817 62.6094C209.359 61.9754 210.057 61.4891 210.913 61.1506C211.775 60.8059 212.772 60.6335 213.904 60.6335C214.692 60.6335 215.446 60.7259 216.167 60.9105C216.893 61.0952 217.536 61.3814 218.096 61.7692C218.663 62.157 219.109 62.6555 219.435 63.2649C219.761 63.8681 219.924 64.5914 219.924 65.4347V75H216.194V73.0334H216.083C215.856 73.4766 215.551 73.8674 215.169 74.206C214.788 74.5384 214.329 74.8 213.794 74.9908C213.258 75.1754 212.64 75.2678 211.938 75.2678ZM213.064 72.5533C213.643 72.5533 214.154 72.4394 214.597 72.2116C215.04 71.9777 215.388 71.6638 215.64 71.2699C215.893 70.8759 216.019 70.4297 216.019 69.9311V68.4261C215.896 68.5062 215.726 68.58 215.511 68.6477C215.302 68.7093 215.065 68.7678 214.8 68.8232C214.535 68.8724 214.271 68.9186 214.006 68.9616C213.741 68.9986 213.501 69.0324 213.286 69.0632C212.824 69.1309 212.421 69.2386 212.076 69.3864C211.732 69.5341 211.464 69.7341 211.273 69.9865C211.082 70.2327 210.987 70.5405 210.987 70.9098C210.987 71.4453 211.181 71.8546 211.569 72.1378C211.962 72.4148 212.461 72.5533 213.064 72.5533ZM228.202 75.2308C227.125 75.2308 226.149 74.9538 225.275 74.3999C224.407 73.8397 223.718 73.018 223.207 71.9347C222.702 70.8452 222.45 69.5095 222.45 67.9276C222.45 66.3026 222.711 64.9515 223.234 63.8743C223.758 62.791 224.453 61.9815 225.321 61.446C226.195 60.9044 227.152 60.6335 228.192 60.6335C228.987 60.6335 229.648 60.7689 230.178 61.0398C230.713 61.3045 231.144 61.6368 231.47 62.0369C231.803 62.4309 232.055 62.8187 232.227 63.2003H232.347V56.0909H236.271V75H232.393V72.7287H232.227C232.043 73.1226 231.781 73.5135 231.442 73.9013C231.11 74.2829 230.676 74.5999 230.141 74.8523C229.611 75.1046 228.965 75.2308 228.202 75.2308ZM229.448 72.1009C230.082 72.1009 230.618 71.9285 231.055 71.5838C231.498 71.233 231.836 70.7436 232.07 70.1158C232.31 69.4879 232.43 68.7524 232.43 67.9091C232.43 67.0658 232.313 66.3333 232.08 65.7116C231.846 65.09 231.507 64.6098 231.064 64.2713C230.621 63.9328 230.082 63.7635 229.448 63.7635C228.802 63.7635 228.257 63.9389 227.814 64.2898C227.371 64.6406 227.035 65.1269 226.808 65.7486C226.58 66.3703 226.466 67.0904 226.466 67.9091C226.466 68.7339 226.58 69.4633 226.808 70.0973C227.041 70.7251 227.377 71.2176 227.814 71.5746C228.257 71.9254 228.802 72.1009 229.448 72.1009ZM245.968 75.277C244.509 75.277 243.254 74.9815 242.201 74.3906C241.155 73.7936 240.348 72.9503 239.782 71.8608C239.216 70.7652 238.933 69.4695 238.933 67.9737C238.933 66.5149 239.216 65.2346 239.782 64.1328C240.348 63.031 241.146 62.1723 242.173 61.5568C243.208 60.9413 244.42 60.6335 245.811 60.6335C246.747 60.6335 247.618 60.7843 248.424 61.0859C249.237 61.3814 249.945 61.8277 250.548 62.4247C251.157 63.0218 251.631 63.7727 251.97 64.6776C252.308 65.5762 252.477 66.6288 252.477 67.8352V68.9155H240.502V66.478H248.775C248.775 65.9117 248.652 65.41 248.406 64.973C248.16 64.536 247.818 64.1944 247.381 63.9482C246.95 63.6958 246.448 63.5696 245.876 63.5696C245.279 63.5696 244.749 63.7081 244.288 63.9851C243.832 64.2559 243.475 64.6222 243.217 65.0838C242.958 65.5393 242.826 66.0471 242.82 66.6072V68.9247C242.82 69.6264 242.949 70.2327 243.208 70.7436C243.472 71.2545 243.845 71.6484 244.325 71.9254C244.805 72.2024 245.374 72.3409 246.033 72.3409C246.47 72.3409 246.87 72.2794 247.233 72.1562C247.596 72.0331 247.907 71.8485 248.166 71.6023C248.424 71.3561 248.621 71.0545 248.757 70.6974L252.394 70.9375C252.21 71.8116 251.831 72.5748 251.259 73.2273C250.692 73.8736 249.96 74.3783 249.061 74.7415C248.169 75.0985 247.138 75.277 245.968 75.277ZM255.044 75V60.8182H258.857V63.2926H259.005C259.264 62.4124 259.698 61.7476 260.307 61.2983C260.916 60.8428 261.618 60.6151 262.412 60.6151C262.609 60.6151 262.821 60.6274 263.049 60.652C263.277 60.6766 263.477 60.7105 263.649 60.7536V64.2436C263.465 64.1882 263.209 64.139 262.883 64.0959C262.557 64.0528 262.258 64.0312 261.987 64.0312C261.409 64.0312 260.892 64.1574 260.436 64.4098C259.987 64.656 259.63 65.0007 259.365 65.4439C259.107 65.8871 258.977 66.398 258.977 66.9766V75H255.044Z" fill="white"/>
</svg>
